<?xml version="1.0" encoding="UTF-8"?><svg id="Capa_1" xmlns="http://www.w3.org/2000/svg" viewBox="0 0 1134 391.66"><defs><style>.cls-1{fill:#9f5029;}.cls-2{fill:#dc7f37;}.cls-3{fill:#5c3f2e;}.cls-4{fill:#7ac943;}</style></defs><g><g><path class="cls-3" d="m0,47.21h76.46c11.56,0,21.59,1.82,30.12,5.45,8.52,3.63,15.59,8.52,21.23,14.67,5.63,6.15,9.81,13.22,12.56,21.23,2.74,8,4.11,16.37,4.11,25.12,0,9.19-1.37,17.86-4.11,26.01-2.74,8.15-6.93,15.3-12.56,21.45-5.63,6.15-12.71,11.04-21.23,14.67-8.52,3.63-18.56,5.45-30.12,5.45h-32.01v39.34H0V47.21Zm44.45,40.45v53.12h29.56c9.34,0,15.93-2.56,19.78-7.67,3.85-5.11,5.78-11.52,5.78-19.23,0-3.41-.44-6.7-1.33-9.89-.89-3.18-2.37-6-4.44-8.45-2.08-2.45-4.74-4.37-8-5.78-3.26-1.41-7.19-2.11-11.78-2.11h-29.56Z"/><path class="cls-3" d="m275.16,47.21c11.11,0,20.74,1.67,28.89,5,8.15,3.33,14.89,7.89,20.23,13.67,5.33,5.78,9.3,12.52,11.89,20.23,2.59,7.71,3.89,15.86,3.89,24.45,0,6.08-.7,12-2.11,17.78-1.41,5.78-3.52,11.15-6.34,16.11-2.82,4.97-6.37,9.48-10.67,13.56-4.3,4.08-9.33,7.45-15.11,10.11l37.56,52.46h-53.12l-32.9-46.45h-22.67v46.45h-44.23V47.21h84.68Zm-40.45,40.45v46.23h38.01c4.45,0,8.22-.63,11.34-1.89,3.11-1.26,5.63-2.92,7.56-5,1.92-2.07,3.33-4.52,4.22-7.33.89-2.81,1.33-5.7,1.33-8.67,0-6.67-1.85-12.23-5.56-16.67-3.71-4.44-10-6.67-18.89-6.67h-38.01Z"/><path class="cls-3" d="m702.58,47.21l70.02,173.37h-48.45l-9.56-25.34h-68.24l-9.56,25.34h-48.45l70.24-173.37h44.01Zm-22,56.9l-19.12,50.9h38.01l-18.89-50.9Z"/><path class="cls-3" d="m814.83,47.21h133.14v43.12h-88.68v24.89h72.9v40.23h-72.9v22.23h88.68v42.9h-133.14V47.21Z"/><path class="cls-3" d="m1034.87,168.57v1.11c0,1.63.59,3.37,1.78,5.22,1.18,1.86,2.96,3.56,5.33,5.11,2.37,1.56,5.41,2.85,9.11,3.89,3.7,1.04,8.07,1.56,13.11,1.56,8.3,0,14.04-1.15,17.23-3.45,3.18-2.3,4.78-4.7,4.78-7.22,0-3.7-2.3-6.89-6.89-9.56-4.59-2.67-12.15-5.78-22.67-9.34-6.97-2.22-14.19-4.85-21.67-7.89-7.48-3.03-14.34-6.78-20.56-11.22-6.22-4.44-11.37-9.85-15.45-16.22-4.08-6.37-6.11-14-6.11-22.89,0-8.3,1.67-15.74,5-22.34,3.33-6.59,8-12.22,14-16.89,6-4.67,13.15-8.26,21.45-10.78,8.3-2.52,17.41-3.78,27.34-3.78s19.45,1.3,28.12,3.89c8.67,2.59,16.15,6.33,22.45,11.22,6.3,4.89,11.26,10.78,14.89,17.67,3.63,6.89,5.45,14.64,5.45,23.23v2.44h-43.34v-1.56c0-2.07-.56-4.22-1.67-6.45-1.11-2.22-2.78-4.22-5-6s-5-3.22-8.33-4.33c-3.34-1.11-7.22-1.67-11.67-1.67-7.56,0-12.97,1.22-16.23,3.67-3.26,2.44-4.89,5.15-4.89,8.11,0,3.41,2.18,6.3,6.56,8.67,4.37,2.37,11.74,5.33,22.12,8.89,5.93,2.08,12.67,4.63,20.23,7.67,7.56,3.04,14.63,6.89,21.23,11.56,6.59,4.67,12.15,10.37,16.67,17.11,4.52,6.75,6.78,14.86,6.78,24.34,0,8.45-1.74,15.89-5.22,22.34-3.48,6.45-8.3,11.82-14.45,16.11-6.15,4.3-13.41,7.56-21.78,9.78-8.37,2.22-17.52,3.33-27.45,3.33s-20.04-1.19-29.01-3.56c-8.97-2.37-16.75-5.81-23.34-10.34-6.59-4.52-11.78-10.11-15.56-16.78s-5.67-14.22-5.67-22.67v-2h43.34Z"/></g><g><path class="cls-1" d="m533.25,94.54c-13.96-24.9-40.62-41.74-71.21-41.74-45.07,0-81.59,36.53-81.59,81.59,0,9.6,1.66,18.8,4.7,27.35-6.62-11.79-10.38-25.38-10.38-39.86,0-45.07,36.53-81.59,81.59-81.59,35.47,0,65.65,22.63,76.9,54.24Z"/><path class="cls-3" d="m562.06,85.48c9.2,36.12-6.13,72.39-35.2,89.28,18.62-19.77,26.8-50.27,19-80.87-10.73-42.13-47.97-69.6-85.75-64.99,2.75-1.09,5.61-2.02,8.56-2.77,40.59-10.34,82.39,16.23,93.38,59.35Z"/><path class="cls-4" d="m554.46,181.68c-9.91,34.34-41.58,59.46-79.12,59.46-45.48,0-82.35-36.87-82.35-82.35,0-14.06,3.53-27.31,9.75-38.89-2.11,7.26-3.23,14.95-3.23,22.89,0,45.48,36.87,82.35,82.35,82.35,31.41,0,58.71-17.58,72.6-43.46Z"/><path class="cls-4" d="m562.28,178.34c-.58-.05-1.16-.11-1.75-.16-.58-.06-1.17-.12-1.75-.17-.22-.02-.34-.09-.3-.35.26-1.98.42-3.98.8-5.94.75-3.93,2.18-7.6,4.57-10.85,1.5-2.03,3.27-3.78,5.46-5.05.25-.15.51-.29.76-.43-.02-.04-.03-.09-.05-.13-.95.36-1.92.68-2.84,1.1-3.4,1.55-5.96,4.05-7.87,7.23-1.9,3.16-3.03,6.59-3.7,10.2-.15.84-.27,1.68-.43,2.64-.43-.79-.83-1.49-1.19-2.21-1.02-2.04-1.79-4.17-2.08-6.43-.51-3.96.41-7.52,3.05-10.58,1.98-2.3,4.48-3.85,7.27-4.97,2.08-.84,4.13-1.74,6.02-2.96,2.18-1.41,4.11-3.08,5.36-5.4,1.07-1.99,1.38-4.09.9-6.33.27.37.54.74.79,1.12,2.95,4.36,5.18,9.04,6.43,14.17.76,3.1,1.06,6.24.76,9.42-.26,2.74-.88,5.4-2.17,7.86-1.65,3.14-4.19,5.29-7.45,6.61-2.08.84-4.25,1.31-6.49,1.48-.61.05-1.22.11-1.83.16h-2.25Z"/><path class="cls-3" d="m450.07,31.41c.45-.04.9-.08,1.34-.13.45-.04.9-.09,1.35-.13.17-.02.26-.07.23-.27-.2-1.52-.33-3.06-.61-4.57-.57-3.03-1.68-5.85-3.52-8.35-1.15-1.56-2.51-2.9-4.2-3.89-.19-.11-.39-.22-.58-.33.01-.03.03-.07.04-.1.73.28,1.48.52,2.19.84,2.62,1.2,4.58,3.11,6.06,5.56,1.46,2.43,2.33,5.07,2.85,7.85.12.64.21,1.29.33,2.03.33-.61.64-1.15.92-1.7.78-1.57,1.38-3.21,1.6-4.95.39-3.04-.32-5.79-2.34-8.14-1.52-1.77-3.44-2.96-5.59-3.82-1.6-.64-3.18-1.34-4.63-2.28-1.68-1.08-3.16-2.37-4.12-4.16-.82-1.53-1.07-3.15-.69-4.87-.2.29-.41.57-.61.86-2.27,3.35-3.99,6.96-4.95,10.9-.58,2.38-.81,4.8-.58,7.25.2,2.11.68,4.15,1.67,6.05,1.27,2.42,3.22,4.07,5.73,5.09,1.6.65,3.27,1.01,4.99,1.14.47.04.94.08,1.41.13h1.73Z"/><path class="cls-2" d="m519.42,85.32c-.58.96-.91,1.7-1.43,2.27-.26.28-.87.31-1.33.33-.99.04-1.42.51-1.22,1.52.17-.04.33-.06.49-.11.17-.05.34-.13.51-.2.29.27.59.54.9.82q-.78,1.63.9,2.54c.6.32,1.24,1.73,1.06,2.42.55.09,1.1.18,1.65.26,0,.08,0,.15,0,.23h-3.17c-.06,1.11-.12,2.1-.18,3.18-1.26-.06-2.46-.11-3.48-.16-.2,2-.39,3.84-.57,5.71,1.78.47,2.02.83,1.61,2.8-.13.65.12.95.66,1.28,1.25.77,2.21,1.08,3.19.87,1.04,1.13,2.45,2.09,1.76,4.04.53.11,1,.21,1.71.37-.51.42-.88.72-1.26,1.03.25.85.51,1.71.69,2.31.75.79,1.35,1.42,1.95,2.06-.06.07-.12.14-.18.2-.58-.3-1.15-.61-1.89-1-.05.45-.11.76-.11,1.06-.01,2.63-.01,5.26-.02,7.9,0,.18,0,.37-.06.54-.52,1.57-.42,3.19-.37,4.81,0,.17-.12.38-.24.52-.59.74-.38,1.46.52,1.68.24.06.5.05.75.07.25.02.5.03.73.04.61,1.39.44,1.54-3.18,2.12.23.57.45,1.11.67,1.66-.59.51-1,4.33-.56,5.34-.72.31-1.44.61-2.1.89.15,2.12,1.16,4.02.86,6.04-.89.18-1.64.33-2.51.51.46.73,1.06,1.23.33,2.03-.23.24-.17,1.05.59,1.33.68.25.86.78.34,1.45-.21.27-.31.72-.29,1.07.07,1.26.24,2.5.33,3.76.03.42-.01.86-.1,1.27-.14.6-.17,1.03.32,1.63.59.72.76,1.78,1.15,2.68.21.49.41,1.15.8,1.35.76.38.79.9.75,1.57-.11,1.58.38,2.98.99,4.43.37.89.87,1.86.59,3.06-.21.91.28,1.98.47,3.03-.17-.01-.4-.03-.63-.04-.35,1.47-.33,1.42-1.75.75-.43-.2-1.04-.03-1.59-.03-.06.47-.09.79-.11.87-.9.26-1.67.43-2.41.72-1.38.53-2.79.65-4.24.43-.14-.02-.29,0-.43,0-1.12.09-2.23.19-2.77-1.3-.14.28-.27.57-.4.83-.57-.17-1.14-.34-1.74-.52-.12.25-.3.44-.29.63.02,1.53.02,3.07.14,4.6.17,2.33.78,4.45,2.88,5.89.36.25.46.95.58,1.47.19.83-.2,1.95,1.27,2.08-.13.24-.17.47-.29.51-.7.25-1.14.69-.91,1.46.24.79.66,1.31,1.68,1.31,1.53,0,2.71,1.47,2.68,3-.03,1.23.55,2.34,1.54,2.88,1,.55,1.28,1.15,1.01,2.13-.2.75.06,1.33.36,2.01.47,1.06.72,2.22.98,3.36.05.2-.29.52-.49.75-.88,1-1.89,1.95-1.24,3.48.11.26.26.52.46.7.89.81,1.1,1.8.89,2.94-.08.45-.11.9-.16,1.4.36.04.6.06.86.09.02,1.89,1.87,1.24,2.86,2.05-.53.9-1.11,1.8-1.61,2.74-.45.83-.82,1.71-1.27,2.66.09.02-.13-.04-.2-.06-.5.75-1.18,1.35-1.35,2.08-.38,1.58-2.72,2.08-2.06,3.93-2.76.47-5.71.17-6.61,3.71.35.06.82.13,1.3.21-1.02-.09.52,2.29-1.34,1.35.02.11.05.22.07.33-.62.12-1.25.38-1.86.32-1.16-.11-2.97.77-3.5,1.87-.53,1.11-1.6,1.29-2.26.28-.55-.83-1.01-1.07-1.74-.28-.09.09-.26.1-.27.1,0-1.36.05-2.74-.01-4.11-.09-1.82-.89-3.32-2.3-4.49-.27-.22-.53-.5-.69-.81-.83-1.55-2.09-2.23-3.84-2.18-.58.01-1.15-.38-1.75-.49-1.04-.19-2.1-.63-3.11.16-.13.1-.48,0-.68-.11-2.31-1.07-4.07-2.59-4.3-5.34-.14-1.62-.67-3.09-1.69-4.37-.11-.14-.21-.31-.23-.48-.19-1.88-.91-2.66-2.71-2.94-.21-.03-.49-.03-.6-.16-1.09-1.25-2.69-1.44-4.12-1.74-2.11-.44-3.58-1.58-4.74-3.26-.99-1.44-2.22-2.24-4.05-2.29-1.59-.04-2.03-.92-1.7-2.49.3-1.44.55-2.92.6-4.38.03-.82-.38-1.65-.6-2.48-.2-.74-.39-1.35.24-2.15.44-.56.24-1.64.3-2.49.06-.81-.55-1.74.4-2.39.32-.22.7-.34,1.07-.46.36-.12.75-.19,1.3-.32-.7-1-1.46-1.59-2.49-1.88-.37-.11-.72-.31-1.08-.48-.07-.03-.14-.11-.19-.1-1.5.48-2.66-.73-4.06-.79-1.34-.06-2.31.34-2.79,1.73-.58-.36-1.11-.69-1.4-.87-.09-.61-.01-1.09-.22-1.37-.65-.85-1.36-1.87-2.64-1.02-.66.44-1.07.49-1.39-.3-.02-.06-.1-.11-.17-.13-1.47-.59-2.18-2.04-3.34-3-.57-.47-.88-1.25-1.29-1.9-.19-.3-.36-.61-.51-.93-.23-.5-.43-1.02-.64-1.52-.01-.03,0-.08-.02-.11-.63-1-1.17-2.07-1.92-2.97-.62-.74-1.36-1.28-1.33-2.44,0-.46-.67-1.1-1.18-1.37-1.62-.84-3.32-1.54-4.99-2.3-.21-.1-.48-.25-.55-.43-.36-.97-.76-1.94-.96-2.95-.28-1.37-1.1-2.26-2.13-3.12-1.05-.88-1.91-2-2.86-3.02.57-.54.93-.87,1.52-1.42-1.19-.9-2.34-1.65-3.33-2.58-.71-.66-1.37-1.49-1.73-2.38-.4-.96-1-1.24-1.75-1.19-.11-1.17-.21-2.28-.32-3.38-.02-.2-.11-.41-.06-.58.34-1.21-.05-2.46-1.08-3.29.53-1.08.63-2.17.12-3.32-.48-1.11-1.03-1.51-2.25-1.39-.43.04-.87.24-1.27.15-1.3-.28-2.16-.99-1.15-2.54.29-.45.59-.94.72-1.45.11-.46.19-1.24-.06-1.42-1.3-.95-1.16-2.76-2.42-3.74-.51-.39-.65-1.24-1.01-1.85-.3-.51-.71-.96-1-1.48-.32-.58-.57-1.2-.84-1.81-.23-.52-.47-1.05-.66-1.58-.2-.55-.43-1.11-.5-1.68-.17-1.34-.86-1.91-2.46-1.86.29-1.61.66-3.18,0-4.84-.27-.66.19-1.61.3-2.43.27-2.01-.51-3.61-2.3-4.64.04-.26.07-.55.12-.83.36-2.08-.12-3.96-1.46-5.58-1.46-1.78-2.96-3.55-3.67-5.78-.53-1.67-.86-3.41-1.27-5.11-.02-.1,0-.22.04-.31.97-2.09,1.32-4.25.73-6.63,1.16.32,1.26-.37,1.28-1.16,0-.38.02-.78.12-1.15.31-1.09-.53-1.74-1.04-2.4-.69-.89-1.63-1.61-2.55-2.29-.43-.32-1.06-.37-1.6-.54-1.89-.6-3.8-1.13-5.66-1.81-1.14-.42-2.19-1.06-3.08-1.5-.19-1-.35-1.87-.51-2.73-.04-.21-.16-.44-.1-.62.47-1.59-.45-2.49-1.64-3.15-1.86-1.02-3.8-1.92-5.68-2.91-.61-.32-1.18-.73-1.93-1.21-.03.63-.2,1.25-.05,1.77.28.96-.25,1.31-.94,1.63-.06.03-.19,0-.21.03-.57,1.4-1.72.73-2.57.6-.95-.15-1.97-.5-2.73-1.08-2.15-1.64-4.19-3.41-6.24-5.17-.83-.71-1.56-1.52-2.33-2.31-.7-.72-1.46-1.27-2.55-1.19-1.07.08-1.82-.29-2.33-1.35-.22-.46-1.02-.64-1.55-.94-.24-.14-.67-.24-.7-.42-.22-1.1-1.11-1.19-1.93-1.42-.25-.07-.63-.19-.68-.36-.26-.93-1.48-1.49-1.03-2.7.08-.21-.15-.53-.24-.81,1.24-.83.78-2.1.74-3.23-.03-.81-.37-1.56.04-2.42.13-.26-.36-.97-.72-1.29-1.16-1.02-1.27-1.57.17-2.73.9-.73,1.54-1.45,1.64-2.72.07-.89.72-1.72,1.21-2.82.38.06.98.17,1.59.28.17.03.39.19.51.12,1.2-.67,2.13.15,3.1.59,10.92,5.02,21.81,10.09,32.75,15.07,14.88,6.77,29.8,13.47,44.7,20.19,6.09,2.75,12.17,5.5,18.27,8.21.64.28,1.39.39,2.1.43,9.6.55,19.19,1.08,28.79,1.62,9.7.54,19.41,1.1,29.11,1.63,1.19.06,2.38,0,3.88,0Z"/></g></g><g><path class="cls-3" d="m53.94,298.86h15.12c2.29,0,4.27.36,5.96,1.08,1.68.72,3.08,1.68,4.2,2.9,1.11,1.22,1.94,2.62,2.48,4.2.54,1.58.81,3.24.81,4.97,0,1.82-.27,3.53-.81,5.14-.54,1.61-1.37,3.02-2.48,4.24s-2.51,2.18-4.2,2.9c-1.69.72-3.67,1.08-5.96,1.08h-6.33v7.78h-8.79v-34.28Zm8.79,8v10.5h5.84c1.85,0,3.15-.5,3.91-1.52.76-1.01,1.14-2.28,1.14-3.8,0-.67-.09-1.33-.26-1.96-.18-.63-.47-1.19-.88-1.67s-.94-.86-1.58-1.14c-.64-.28-1.42-.42-2.33-.42h-5.84Z"/><path class="cls-3" d="m117.57,298.86c2.2,0,4.1.33,5.71.99,1.61.66,2.94,1.56,4,2.7,1.05,1.14,1.84,2.48,2.35,4,.51,1.52.77,3.14.77,4.83,0,1.2-.14,2.37-.42,3.52-.28,1.14-.7,2.2-1.25,3.19-.56.98-1.26,1.88-2.11,2.68s-1.85,1.47-2.99,2l7.43,10.37h-10.5l-6.5-9.18h-4.48v9.18h-8.75v-34.28h16.74Zm-8,8v9.14h7.51c.88,0,1.63-.12,2.24-.37.62-.25,1.11-.58,1.49-.99.38-.41.66-.89.83-1.45.18-.56.26-1.13.26-1.71,0-1.32-.37-2.42-1.1-3.3-.73-.88-1.98-1.32-3.74-1.32h-7.51Z"/><path class="cls-3" d="m147.8,315.99c0-2.46.48-4.77,1.45-6.92.97-2.15,2.28-4.04,3.93-5.65,1.65-1.61,3.59-2.88,5.8-3.82,2.21-.94,4.55-1.41,7.01-1.41s4.84.47,7.05,1.41c2.21.94,4.15,2.21,5.8,3.82,1.65,1.61,2.96,3.5,3.91,5.65.95,2.15,1.43,4.46,1.43,6.92s-.48,4.77-1.43,6.92c-.95,2.15-2.26,4.04-3.91,5.65-1.66,1.61-3.59,2.89-5.8,3.82-2.21.94-4.56,1.41-7.05,1.41s-4.8-.47-7.01-1.41c-2.21-.94-4.15-2.21-5.8-3.82-1.65-1.61-2.97-3.49-3.93-5.65-.97-2.15-1.45-4.46-1.45-6.92Zm8.88,0c0,1.29.24,2.5.72,3.65.48,1.14,1.15,2.13,2,2.97.85.84,1.84,1.5,2.97,1.98,1.13.48,2.34.73,3.63.73s2.54-.24,3.67-.73c1.13-.48,2.11-1.14,2.94-1.98.83-.84,1.49-1.82,1.98-2.97.48-1.14.72-2.36.72-3.65s-.24-2.5-.72-3.65c-.48-1.14-1.14-2.13-1.98-2.97-.84-.83-1.82-1.49-2.94-1.98-1.13-.48-2.35-.72-3.67-.72s-2.5.24-3.63.72c-1.13.48-2.12,1.14-2.97,1.98-.85.84-1.52,1.82-2,2.97-.48,1.14-.72,2.36-.72,3.65Z"/><path class="cls-3" d="m235.6,323.95c-.76,1.46-1.7,2.8-2.81,4-1.11,1.2-2.37,2.23-3.78,3.1s-2.93,1.54-4.57,2.02c-1.64.48-3.34.73-5.1.73-2.46,0-4.8-.47-7.01-1.41-2.21-.94-4.15-2.21-5.8-3.82-1.65-1.61-2.97-3.49-3.93-5.65s-1.45-4.46-1.45-6.92.48-4.77,1.45-6.92,2.28-4.04,3.93-5.65c1.65-1.61,3.59-2.88,5.8-3.82,2.21-.94,4.55-1.41,7.01-1.41,1.76,0,3.45.24,5.08.72,1.63.48,3.14,1.15,4.55,2,1.41.85,2.67,1.88,3.78,3.08,1.11,1.2,2.05,2.52,2.81,3.95l-8,3.6c-.76-1.46-1.87-2.64-3.32-3.54-1.45-.89-3.08-1.34-4.9-1.34-1.29,0-2.5.24-3.63.72-1.13.48-2.12,1.14-2.97,1.98-.85.84-1.52,1.82-2,2.97-.48,1.14-.72,2.36-.72,3.65s.24,2.5.72,3.65c.48,1.14,1.15,2.13,2,2.97.85.84,1.84,1.5,2.97,1.98,1.13.48,2.34.73,3.63.73,1.85,0,3.49-.45,4.92-1.34s2.53-2.07,3.3-3.54l8.04,3.52Z"/><path class="cls-3" d="m284.64,298.86v19.29c0,2.2-.34,4.25-1.03,6.15-.69,1.91-1.7,3.56-3.03,4.97-1.33,1.41-2.98,2.51-4.94,3.32-1.96.81-4.22,1.21-6.77,1.21s-4.85-.4-6.81-1.21c-1.96-.81-3.6-1.91-4.92-3.32-1.32-1.41-2.31-3.06-2.99-4.97-.67-1.9-1.01-3.95-1.01-6.15v-19.29h8.79v18.76c0,2.49.59,4.39,1.76,5.71,1.17,1.32,2.9,1.98,5.19,1.98s4.06-.66,5.25-1.98c1.19-1.32,1.78-3.22,1.78-5.71v-18.76h8.75Z"/><path class="cls-3" d="m321.11,298.86c2.2,0,4.1.33,5.71.99,1.61.66,2.94,1.56,4,2.7,1.05,1.14,1.84,2.48,2.35,4,.51,1.52.77,3.14.77,4.83,0,1.2-.14,2.37-.42,3.52-.28,1.14-.7,2.2-1.25,3.19-.56.98-1.26,1.88-2.11,2.68s-1.85,1.47-2.99,2l7.43,10.37h-10.5l-6.5-9.18h-4.48v9.18h-8.75v-34.28h16.74Zm-8,8v9.14h7.51c.88,0,1.63-.12,2.24-.37.62-.25,1.11-.58,1.49-.99.38-.41.66-.89.83-1.45.18-.56.26-1.13.26-1.71,0-1.32-.37-2.42-1.1-3.3-.73-.88-1.98-1.32-3.74-1.32h-7.51Z"/><path class="cls-3" d="m372.92,298.86l13.84,34.28h-9.58l-1.89-5.01h-13.49l-1.89,5.01h-9.58l13.89-34.28h8.7Zm-4.35,11.25l-3.78,10.06h7.51l-3.74-10.06Z"/><path class="cls-3" d="m404.34,298.86h15.91c2.67,0,5.02.46,7.05,1.36,2.04.91,3.73,2.15,5.08,3.71,1.35,1.57,2.37,3.39,3.05,5.47.69,2.08,1.03,4.28,1.03,6.59s-.34,4.56-1.03,6.64c-.69,2.08-1.71,3.9-3.05,5.45-1.35,1.55-3.04,2.78-5.08,3.69-2.04.91-4.39,1.36-7.05,1.36h-15.91v-34.28Zm8.79,8.53v17.27h6.46c1.32,0,2.48-.21,3.47-.64,1-.42,1.83-1.02,2.5-1.78.67-.76,1.18-1.67,1.52-2.72.34-1.05.5-2.23.5-3.52,0-2.58-.67-4.66-2.02-6.24s-3.34-2.37-5.98-2.37h-6.46Z"/><path class="cls-3" d="m486.25,298.86v19.29c0,2.2-.34,4.25-1.03,6.15-.69,1.91-1.7,3.56-3.03,4.97-1.33,1.41-2.98,2.51-4.94,3.32-1.96.81-4.22,1.21-6.77,1.21s-4.85-.4-6.81-1.21c-1.96-.81-3.6-1.91-4.92-3.32-1.32-1.41-2.31-3.06-2.99-4.97-.67-1.9-1.01-3.95-1.01-6.15v-19.29h8.79v18.76c0,2.49.59,4.39,1.76,5.71,1.17,1.32,2.9,1.98,5.19,1.98s4.06-.66,5.25-1.98c1.19-1.32,1.78-3.22,1.78-5.71v-18.76h8.75Z"/><path class="cls-3" d="m522.73,298.86c2.2,0,4.1.33,5.71.99,1.61.66,2.94,1.56,4,2.7,1.05,1.14,1.84,2.48,2.35,4,.51,1.52.77,3.14.77,4.83,0,1.2-.14,2.37-.42,3.52-.28,1.14-.7,2.2-1.25,3.19-.56.98-1.26,1.88-2.11,2.68-.85.81-1.85,1.47-2.99,2l7.43,10.37h-10.5l-6.5-9.18h-4.48v9.18h-8.75v-34.28h16.74Zm-8,8v9.14h7.51c.88,0,1.63-.12,2.24-.37.62-.25,1.11-.58,1.49-.99.38-.41.66-.89.83-1.45.18-.56.26-1.13.26-1.71,0-1.32-.37-2.42-1.1-3.3-.73-.88-1.98-1.32-3.74-1.32h-7.51Z"/><path class="cls-3" d="m551.12,292.09l11.43-8.13,4.26,7.38-12.74,5.84-2.94-5.1Zm12.26,6.77v34.28h-8.79v-34.28h8.79Z"/><path class="cls-3" d="m603.54,298.86l13.84,34.28h-9.58l-1.89-5.01h-13.49l-1.89,5.01h-9.58l13.89-34.28h8.7Zm-4.35,11.25l-3.78,10.06h7.51l-3.74-10.06Z"/><path class="cls-3" d="m677.63,298.86l13.84,34.28h-9.58l-1.89-5.01h-13.49l-1.89,5.01h-9.58l13.89-34.28h8.7Zm-4.35,11.25l-3.78,10.06h7.51l-3.74-10.06Z"/><path class="cls-3" d="m709.05,333.13v-34.28h8.83l9.89,21.67,9.93-21.67h8.83v34.28h-8.75v-16.13l-7.12,14.81h-5.76l-7.12-14.81v16.13h-8.74Z"/><path class="cls-3" d="m766.74,298.86h17.05c1.85,0,3.46.24,4.86.7,1.39.47,2.55,1.13,3.47,1.98.92.85,1.62,1.85,2.09,3.01.47,1.16.7,2.41.7,3.76,0,1.76-.37,3.22-1.12,4.39-.75,1.17-1.77,2.11-3.05,2.81,1.76.67,3.15,1.66,4.18,2.97,1.02,1.3,1.54,2.97,1.54,4.99,0,1.41-.26,2.7-.77,3.89-.51,1.19-1.25,2.21-2.22,3.08-.97.87-2.14,1.53-3.52,2-1.38.47-2.93.7-4.66.7h-18.54v-34.28Zm8.79,8v5.45h7.25c1.2,0,2.04-.25,2.53-.75.48-.5.73-1.16.73-1.98s-.23-1.48-.68-1.98c-.45-.5-1.15-.75-2.09-.75h-7.73Zm0,12.3v6.02h8.79c1.2,0,2.04-.29,2.53-.86s.72-1.31.72-2.22-.24-1.59-.72-2.13c-.48-.54-1.33-.81-2.53-.81h-8.79Z"/><path class="cls-3" d="m823.96,298.86v34.28h-8.79v-34.28h8.79Z"/><path class="cls-3" d="m844.17,298.86h26.32v8.53h-17.53v4.92h14.41v7.95h-14.41v4.39h17.53v8.48h-26.32v-34.28Z"/><path class="cls-3" d="m889.7,333.13v-34.28h7.47l15.29,19.16v-19.16h8.75v34.28h-7.43l-15.29-19.12v19.12h-8.79Z"/><path class="cls-3" d="m939.31,298.86h30.15v8.53h-10.68v25.75h-8.79v-25.75h-10.68v-8.53Z"/><path class="cls-3" d="m1002.24,298.86l13.84,34.28h-9.58l-1.89-5.01h-13.49l-1.89,5.01h-9.58l13.89-34.28h8.7Zm-4.35,11.25l-3.78,10.06h7.51l-3.74-10.06Z"/><path class="cls-3" d="m1033.66,298.86h8.74v25.8h16.44v8.48h-25.18v-34.28Z"/><path class="cls-1" d="m179.25,361.72h11.49c2.24,0,4.21.38,5.91,1.15,1.71.77,3.13,1.81,4.28,3.13,1.14,1.32,2.01,2.87,2.6,4.65s.89,3.7.89,5.76-.3,3.99-.89,5.78c-.59,1.8-1.46,3.35-2.6,4.67-1.14,1.32-2.57,2.36-4.28,3.11-1.71.75-3.68,1.13-5.91,1.13h-11.49v-29.38Zm2.22,2.19v25.01h9.15c1.86,0,3.5-.32,4.93-.96,1.43-.64,2.64-1.52,3.62-2.64.98-1.12,1.73-2.43,2.24-3.95.51-1.52.77-3.17.77-4.95s-.26-3.43-.77-4.95c-.52-1.52-1.26-2.84-2.24-3.95-.98-1.12-2.18-2-3.62-2.64-1.43-.64-3.08-.96-4.93-.96h-9.15Z"/><path class="cls-1" d="m222.6,361.72h20.19v2.19h-17.97v11.71h15.29v2.11h-15.29v11.19h17.97v2.19h-20.19v-29.38Z"/><path class="cls-1" d="m261.02,361.72h2.22v27.19h16.99v2.19h-19.21v-29.38Z"/><path class="cls-1" d="m322.08,361.72h20.19v2.19h-17.97v11.71h15.29v2.11h-15.29v11.19h17.97v2.19h-20.19v-29.38Z"/><path class="cls-1" d="m360.68,383.75v.15c0,.83.21,1.59.64,2.28.43.69,1.04,1.29,1.85,1.79s1.77.9,2.9,1.19c1.13.29,2.41.43,3.84.43,2.74,0,4.82-.51,6.25-1.54,1.43-1.03,2.15-2.34,2.15-3.92,0-.95-.25-1.77-.74-2.45-.49-.68-1.15-1.27-1.98-1.77-.83-.5-1.8-.95-2.9-1.34-1.1-.39-2.27-.77-3.5-1.15-1.21-.38-2.42-.79-3.65-1.22s-2.35-.98-3.37-1.64c-1.02-.65-1.85-1.44-2.49-2.35-.64-.92-.96-2.04-.96-3.37,0-1.15.24-2.2.73-3.15s1.19-1.75,2.09-2.43c.9-.68,2-1.2,3.3-1.56,1.29-.36,2.73-.55,4.31-.55s3.09.19,4.44.57,2.52.9,3.48,1.58,1.72,1.48,2.26,2.41c.54.93.81,1.95.81,3.05v.34h-2.18v-.19c0-.83-.2-1.59-.6-2.28-.4-.69-.99-1.29-1.75-1.79-.77-.5-1.69-.9-2.79-1.19-1.09-.29-2.32-.43-3.67-.43-2.64,0-4.65.52-6.03,1.54-1.38,1.03-2.07,2.34-2.07,3.92,0,.95.23,1.76.7,2.41.46.65,1.1,1.23,1.9,1.73.8.5,1.73.94,2.79,1.32,1.05.38,2.18.75,3.39,1.13,1.18.35,2.41.75,3.69,1.19,1.28.44,2.45.99,3.5,1.66,1.05.67,1.93,1.47,2.62,2.41.69.94,1.04,2.1,1.04,3.49,0,1.15-.26,2.2-.77,3.15-.52.94-1.24,1.74-2.18,2.41-.94.67-2.07,1.18-3.39,1.54-1.32.36-2.79.55-4.43.55s-3.22-.19-4.61-.57-2.59-.9-3.6-1.58c-1-.68-1.79-1.48-2.35-2.41-.57-.93-.85-1.95-.85-3.05v-.3h2.19Z"/><path class="cls-1" d="m395.49,361.72h23.43v2.19h-10.62v27.19h-2.22v-27.19h-10.58v-2.19Z"/><path class="cls-1" d="m444.11,361.72l13.48,29.38h-2.45l-3.01-6.63h-18.46l-2.98,6.63h-2.49l13.48-29.38h2.41Zm-9.45,20.64h16.5l-8.25-18.23-8.25,18.23Z"/><path class="cls-1" d="m474.02,361.72h11.49c2.24,0,4.21.38,5.91,1.15s3.13,1.81,4.28,3.13c1.14,1.32,2.01,2.87,2.6,4.65.59,1.78.89,3.7.89,5.76s-.3,3.99-.89,5.78c-.59,1.8-1.46,3.35-2.6,4.67-1.14,1.32-2.57,2.36-4.28,3.11-1.71.75-3.68,1.13-5.91,1.13h-11.49v-29.38Zm2.22,2.19v25.01h9.15c1.86,0,3.5-.32,4.93-.96,1.43-.64,2.64-1.52,3.62-2.64.98-1.12,1.73-2.43,2.24-3.95.51-1.52.77-3.17.77-4.95s-.26-3.43-.77-4.95c-.52-1.52-1.26-2.84-2.24-3.95-.98-1.12-2.18-2-3.62-2.64-1.43-.64-3.08-.96-4.93-.96h-9.15Z"/><path class="cls-1" d="m515.26,376.4c0-2.11.4-4.09,1.21-5.93s1.9-3.46,3.28-4.84c1.38-1.38,3.01-2.47,4.88-3.28,1.87-.8,3.86-1.21,5.97-1.21s4.09.4,5.95,1.21,3.48,1.9,4.86,3.28c1.38,1.38,2.47,3,3.28,4.84.8,1.84,1.21,3.82,1.21,5.93s-.4,4.09-1.21,5.95c-.8,1.86-1.9,3.47-3.28,4.84-1.38,1.37-3,2.45-4.86,3.26s-3.84,1.21-5.95,1.21-4.1-.4-5.97-1.21c-1.87-.8-3.5-1.89-4.88-3.26-1.38-1.37-2.47-2.98-3.28-4.84s-1.21-3.84-1.21-5.95Zm2.26,0c0,1.81.34,3.5,1.04,5.09.69,1.58,1.63,2.96,2.81,4.14,1.18,1.18,2.56,2.11,4.14,2.79,1.58.68,3.28,1.02,5.08,1.02s3.47-.34,5.05-1.02c1.58-.68,2.96-1.61,4.14-2.79,1.18-1.18,2.12-2.56,2.81-4.14.69-1.58,1.04-3.28,1.04-5.09s-.35-3.46-1.04-5.05c-.69-1.58-1.63-2.96-2.81-4.14-1.18-1.18-2.56-2.12-4.14-2.81-1.58-.69-3.26-1.04-5.05-1.04s-3.5.35-5.08,1.04c-1.58.69-2.96,1.63-4.14,2.81-1.18,1.18-2.12,2.56-2.81,4.14-.69,1.58-1.04,3.26-1.04,5.05Z"/><path class="cls-1" d="m588.6,361.72h11.49c2.24,0,4.21.38,5.91,1.15,1.71.77,3.13,1.81,4.28,3.13,1.14,1.32,2.01,2.87,2.6,4.65.59,1.78.89,3.7.89,5.76s-.3,3.99-.89,5.78c-.59,1.8-1.46,3.35-2.6,4.67-1.14,1.32-2.57,2.36-4.28,3.11-1.71.75-3.68,1.13-5.91,1.13h-11.49v-29.38Zm2.22,2.19v25.01h9.15c1.86,0,3.5-.32,4.93-.96,1.43-.64,2.64-1.52,3.62-2.64.98-1.12,1.73-2.43,2.24-3.95.51-1.52.77-3.17.77-4.95s-.26-3.43-.77-4.95c-.52-1.52-1.26-2.84-2.24-3.95-.98-1.12-2.18-2-3.62-2.64-1.43-.64-3.08-.96-4.93-.96h-9.15Z"/><path class="cls-1" d="m631.95,361.72h20.19v2.19h-17.97v11.71h15.29v2.11h-15.29v11.19h17.97v2.19h-20.19v-29.38Z"/><path class="cls-1" d="m695.27,383.75v.15c0,.83.21,1.59.64,2.28.43.69,1.04,1.29,1.85,1.79.8.5,1.77.9,2.9,1.19,1.13.29,2.41.43,3.84.43,2.74,0,4.82-.51,6.25-1.54,1.43-1.03,2.15-2.34,2.15-3.92,0-.95-.24-1.77-.73-2.45-.49-.68-1.15-1.27-1.98-1.77-.83-.5-1.8-.95-2.9-1.34-1.11-.39-2.27-.77-3.5-1.15-1.21-.38-2.42-.79-3.65-1.22s-2.35-.98-3.37-1.64c-1.02-.65-1.85-1.44-2.49-2.35-.64-.92-.96-2.04-.96-3.37,0-1.15.25-2.2.74-3.15.49-.94,1.19-1.75,2.09-2.43s2-1.2,3.29-1.56c1.29-.36,2.73-.55,4.31-.55s3.09.19,4.44.57c1.36.38,2.52.9,3.49,1.58.97.68,1.72,1.48,2.26,2.41.54.93.81,1.95.81,3.05v.34h-2.19v-.19c0-.83-.2-1.59-.6-2.28-.4-.69-.98-1.29-1.75-1.79-.77-.5-1.69-.9-2.79-1.19-1.09-.29-2.32-.43-3.67-.43-2.64,0-4.65.52-6.03,1.54-1.38,1.03-2.07,2.34-2.07,3.92,0,.95.23,1.76.7,2.41s1.1,1.23,1.9,1.73c.8.5,1.73.94,2.79,1.32,1.05.38,2.19.75,3.39,1.13,1.18.35,2.41.75,3.69,1.19,1.28.44,2.45.99,3.5,1.66,1.05.67,1.93,1.47,2.62,2.41.69.94,1.04,2.1,1.04,3.49,0,1.15-.26,2.2-.77,3.15-.51.94-1.24,1.74-2.19,2.41-.94.67-2.07,1.18-3.39,1.54s-2.79.55-4.42.55-3.22-.19-4.61-.57c-1.39-.38-2.59-.9-3.6-1.58-1-.68-1.79-1.48-2.35-2.41-.57-.93-.85-1.95-.85-3.05v-.3h2.18Z"/><path class="cls-1" d="m731.16,376.4c0-2.11.4-4.09,1.21-5.93.8-1.84,1.89-3.46,3.28-4.84,1.38-1.38,3.01-2.47,4.88-3.28,1.87-.8,3.86-1.21,5.97-1.21s4.09.4,5.95,1.21c1.86.8,3.48,1.9,4.86,3.28,1.38,1.38,2.47,3,3.28,4.84.8,1.84,1.21,3.82,1.21,5.93s-.4,4.09-1.21,5.95c-.8,1.86-1.9,3.47-3.28,4.84s-3,2.45-4.86,3.26c-1.86.8-3.84,1.21-5.95,1.21s-4.1-.4-5.97-1.21c-1.87-.8-3.5-1.89-4.88-3.26-1.38-1.37-2.47-2.98-3.28-4.84-.81-1.86-1.21-3.84-1.21-5.95Zm2.26,0c0,1.81.34,3.5,1.04,5.09.69,1.58,1.62,2.96,2.81,4.14s2.56,2.11,4.14,2.79c1.58.68,3.28,1.02,5.08,1.02s3.46-.34,5.05-1.02c1.58-.68,2.96-1.61,4.14-2.79,1.18-1.18,2.12-2.56,2.81-4.14.69-1.58,1.04-3.28,1.04-5.09s-.35-3.46-1.04-5.05c-.69-1.58-1.63-2.96-2.81-4.14-1.18-1.18-2.56-2.12-4.14-2.81-1.58-.69-3.26-1.04-5.05-1.04s-3.5.35-5.08,1.04c-1.58.69-2.96,1.63-4.14,2.81-1.18,1.18-2.12,2.56-2.81,4.14-.69,1.58-1.04,3.26-1.04,5.05Z"/><path class="cls-1" d="m779.79,391.1v-29.38h2l20.34,25.57v-25.57h2.22v29.38h-2l-20.34-25.54v25.54h-2.22Z"/><path class="cls-1" d="m822.32,376.4c0-2.11.4-4.09,1.21-5.93.8-1.84,1.89-3.46,3.28-4.84,1.38-1.38,3.01-2.47,4.88-3.28,1.87-.8,3.86-1.21,5.97-1.21s4.09.4,5.95,1.21c1.86.8,3.48,1.9,4.86,3.28,1.38,1.38,2.47,3,3.28,4.84s1.21,3.82,1.21,5.93-.4,4.09-1.21,5.95-1.9,3.47-3.28,4.84c-1.38,1.37-3,2.45-4.86,3.26-1.86.8-3.84,1.21-5.95,1.21s-4.1-.4-5.97-1.21c-1.87-.8-3.5-1.89-4.88-3.26-1.38-1.37-2.47-2.98-3.28-4.84-.81-1.86-1.21-3.84-1.21-5.95Zm2.26,0c0,1.81.34,3.5,1.04,5.09.69,1.58,1.62,2.96,2.81,4.14,1.18,1.18,2.56,2.11,4.14,2.79,1.58.68,3.28,1.02,5.08,1.02s3.46-.34,5.05-1.02c1.58-.68,2.96-1.61,4.14-2.79s2.12-2.56,2.81-4.14c.69-1.58,1.04-3.28,1.04-5.09s-.35-3.46-1.04-5.05c-.69-1.58-1.63-2.96-2.81-4.14-1.18-1.18-2.56-2.12-4.14-2.81-1.58-.69-3.26-1.04-5.05-1.04s-3.5.35-5.08,1.04c-1.58.69-2.96,1.63-4.14,2.81-1.18,1.18-2.12,2.56-2.81,4.14-.69,1.58-1.04,3.26-1.04,5.05Z"/><path class="cls-1" d="m883.9,361.72c1.58,0,2.99.25,4.24.75,1.24.5,2.29,1.19,3.15,2.05.85.87,1.51,1.87,1.96,3.01.45,1.14.68,2.35.68,3.63,0,1.03-.15,2.02-.45,2.98-.3.95-.73,1.83-1.3,2.64-.57.8-1.26,1.5-2.09,2.09-.83.59-1.78,1.05-2.86,1.37l7.72,10.85h-2.71l-7.42-10.43c-.15.03-.3.04-.45.04h-11.19v10.4h-2.22v-29.38h12.96Zm-10.73,2.11v14.76h10.66c1.28,0,2.41-.2,3.39-.6.98-.4,1.81-.94,2.49-1.62s1.19-1.46,1.53-2.36c.34-.89.51-1.83.51-2.81s-.17-1.91-.51-2.81c-.34-.89-.85-1.68-1.53-2.35-.68-.68-1.51-1.22-2.49-1.62-.98-.4-2.11-.6-3.39-.6h-10.66Z"/><path class="cls-1" d="m924.73,361.72l13.48,29.38h-2.45l-3.01-6.63h-18.46l-2.98,6.63h-2.49l13.48-29.38h2.41Zm-9.45,20.64h16.5l-8.25-18.23-8.25,18.23Z"/></g></svg>